<?xml version="1.0" encoding="iso-8859-1"?>
<!-- Uploaded to: SVG Repo, www.svgrepo.com, Generator: SVG Repo Mixer Tools -->
<!DOCTYPE svg PUBLIC "-//W3C//DTD SVG 1.1//EN" "http://www.w3.org/Graphics/SVG/1.1/DTD/svg11.dtd">
<svg fill="#000000" height="800px" width="800px" version="1.1" id="Capa_1" xmlns="http://www.w3.org/2000/svg" xmlns:xlink="http://www.w3.org/1999/xlink" 
	 viewBox="0 0 352.673 352.673" xml:space="preserve">
<path d="M163.027,312.844c-5.445,17.809-22.085,31.076-49.458,39.434c-0.875,0.267-1.761,0.395-2.631,0.395
	c-3.855,0-7.42-2.496-8.605-6.375c-1.451-4.754,1.226-9.784,5.979-11.236c21.296-6.502,33.913-15.748,37.5-27.48
	c1.454-4.753,6.485-7.43,11.238-5.976C161.805,303.06,164.48,308.091,163.027,312.844z M119.102,303.861c0-4.971-4.029-9-9-9
	c-19.226,0-34.867-15.642-34.867-34.868v-86.545c0-13.066,2.489-25.803,7.399-37.854c1.875-4.603-0.336-9.855-4.939-11.73
	c-4.604-1.876-9.854,0.336-11.73,4.939c-5.792,14.218-8.729,29.239-8.729,44.645v86.545c0,29.151,23.716,52.868,52.867,52.868
	C115.073,312.861,119.102,308.832,119.102,303.861z M252.001,195.891c0-13.966-2.231-26.849-6.63-38.294
	c-0.122-0.335-0.265-0.666-0.429-0.991c-0.58-1.151-1.382-2.131-2.333-2.908c-0.745-0.61-1.573-1.087-2.45-1.426
	c-1.591-0.617-3.363-0.786-5.108-0.415c-0.696,0.146-1.382,0.377-2.042,0.696c-0.509,0.244-0.987,0.532-1.429,0.856
	c-13.148,9.098-33.192,14.337-55.04,14.379c-4.971,0.01-8.992,4.047-8.982,9.018c0.01,4.965,4.037,8.982,9,8.982
	c0.006,0,0.012,0,0.018,0c20.479-0.04,39.889-4.208,55.069-11.65c1.567,6.746,2.358,14.024,2.358,21.753
	c0,27.149-13.907,52.12-36.294,65.167c-8.715,5.081-15.307,7.353-21.371,7.366c-6.064-0.014-12.656-2.286-21.374-7.367
	c-22.385-13.047-36.291-38.018-36.291-65.167c0-7.723,0.789-14.996,2.353-21.736c1.664,0.819,3.378,1.599,5.139,2.337l0.902,0.378
	c6.036,2.536,10.396,4.37,15.414,2.229c4.926-2.101,6.61-6.487,8.561-11.566c0.414-1.077,0.885-2.304,1.444-3.689
	c2.375-5.882,4.994-13.153,5.962-16.554c1.36-4.781-1.412-9.759-6.193-11.12c-4.783-1.361-9.759,1.413-11.12,6.193
	c-0.707,2.483-3.021,8.998-5.341,14.742c-0.498,1.234-0.931,2.35-1.317,3.354c-0.146-0.062-0.292-0.123-0.437-0.184l-0.918-0.386
	c-4.475-1.875-8.521-4.055-12.03-6.483c-0.435-0.319-0.903-0.602-1.402-0.843c-0.673-0.327-1.373-0.563-2.084-0.711
	c-1.741-0.366-3.503-0.197-5.09,0.418c-0.895,0.346-1.74,0.836-2.497,1.464c-0.923,0.764-1.703,1.72-2.272,2.84
	c-0.172,0.335-0.321,0.679-0.447,1.026c-4.397,11.442-6.627,24.324-6.627,38.29c0,33.529,17.33,64.459,45.228,80.719
	c11.617,6.771,20.999,9.798,30.416,9.815c0.007,0,0.014,0,0.021,0h0.001c0.007,0,0.014,0,0.021,0
	c9.418-0.017,18.799-3.044,30.414-9.815C234.67,260.35,252.001,229.421,252.001,195.891z M243.831,335.062
	c-21.296-6.501-33.914-15.748-37.501-27.481c-1.453-4.752-6.479-7.429-11.238-5.975c-4.753,1.453-7.428,6.485-5.975,11.238
	c5.445,17.809,22.085,31.076,49.458,39.433c0.875,0.267,1.761,0.395,2.631,0.395c3.855,0,7.421-2.496,8.605-6.375
	C251.262,341.544,248.585,336.514,243.831,335.062z M295.437,173.449v86.545c0,29.151-23.716,52.868-52.868,52.868
	c-4.971,0-9-4.029-9-9s4.029-9,9-9c19.226,0,34.868-15.642,34.868-34.868v-86.545c0-52.584-40.36-95.921-91.729-100.667
	l1.937,14.193c0.617,4.522-2.249,8.79-6.667,9.931l-64.548,16.666c-4.419,1.14-8.993-1.207-10.642-5.462L77.112,34.122
	c-1.206-3.111-0.591-6.635,1.597-9.154c2.188-2.52,5.589-3.619,8.841-2.863l18.43,4.302l9.693-21.155
	c1.117-2.438,3.264-4.251,5.855-4.945c2.591-0.695,5.356-0.195,7.542,1.359l19.09,13.574L162,2.861
	c2.48-2.219,5.985-2.889,9.109-1.738c3.125,1.15,5.358,3.931,5.809,7.229l6.303,46.196
	C245.704,58.123,295.437,110.087,295.437,173.449z M168.728,81.478l-7.354-53.906l-6.571,5.877
	c-3.133,2.804-7.79,3.062-11.216,0.627L127.505,22.64l-8.226,17.953c-1.783,3.891-6.059,5.988-10.228,5.015l-8.997-2.1
	l19.625,50.635L168.728,81.478z"/>
</svg>